# xmcd
#
# Track frame offsets: 
#        150
#        14590
#        35465
#        51690
#        68572
#        85307
#        106147
#        120827
#        141735
#        160015
#        173727
#        201782
#
# Disc length: 2902 seconds
#
# Revision: 2
# Processed by: cddbd v1.5.2PL0 Copyright (c) Steve Scherf et al.
# Submitted via: ExactAudioCopy v0.99pb5
#
DISCID=a20b540c
DTITLE=Ann Wilson - Hope and Glory
DYEAR=2007
DGENRE=Rock
TTITLE0=Goodbye Blue Sky (Featuring Nancy Wilson)
TTITLE1=Where To Now St. Peter? (Duet with Sir Elton John)
TTITLE2=Jackson (Duet with K.D. Lang)
TTITLE3=We Gotta Get Out Of This Place (Duet with Wynonna)
TTITLE4=Immigrant Song
TTITLE5=Darkness, Darkness (Featuring Nancy Wilson)
TTITLE6=Bad Moon Rising (Duet with Gretchen Wilson)
TTITLE7=War Of Man (Featuring Alison Krauss)
TTITLE8=Get Together (Featuring Nancy Wilson, Wynonna, and Deana Carte
TTITLE8=r)
TTITLE9=Isolation
TTITLE10=A Hard Rain's A-Gonna Fall (Featuring Shawn Colvin and Rufus 
TTITLE10=Wainwright)
TTITLE11=Little Problems, Little Lies
EXTD=
EXTT0=
EXTT1=
EXTT2=
EXTT3=
EXTT4=
EXTT5=
EXTT6=
EXTT7=
EXTT8=
EXTT9=
EXTT10=
EXTT11=
PLAYORDER=
